**ABCDEFGHIJKLMNOPQRSTUVWXYZabcdefghijklmnopqrstuvwxyz**************************
**PARASOLID !"#$%&'()*+,-./:;<=>?@[\]^_`{|}~0123456789**************************
**PART1;
MC=unknown;
MC_MODEL=unknown;
MC_ID=unknown;
OS=unknown;
OS_RELEASE=unknown;
FRU=sdl_parasolid_customer_support;
APPL=parasolid_acceptance_tests;
SITE=unknown;
USER=unknown;
FORMAT=text;
GUISE=transmit;
KEY=/lore/mersoj/real-fcl/models/FCL_model_nat.x_t;
FILE=/lore/mersoj/real-fcl/models/FCL_model_nat.x_t;
DATE=unknown;
**PART2;
SCH=SCH_3100154_31001;
USFLD_SIZE=1;
**PART3;
**END_OF_HEADER*****************************************************************
T51 : TRANSMIT FILE created by modeller version 310015423 SCH_3100154_31001_1300
6215 1 12 34 CCCCCCI4 mesh1006 0 I8 polyline1008 0 CCCCCCCDI5 owner1040 0 CCCCCC
I13 boundary_mesh1006 0 I17 boundary_polyline1008 0 CCCA16 index_map_offset0 0 1
 dA9 index_map82 0 A17 node_id_index_map82 0 A20 schema_embedding_map82 0 A5 chi
ld12 0 A14 lowest_node_id0 0 1 dA16 mesh_offset_data206 0 Z1 139 2 3 0 0 0 0 0 0
 1e3 1e-8 0 0 0 1 0 1 1 4 5 6 7 0 0 8 9 10 0 0 0 0 0 0 0 0 81 255 1 2 139 11 1 1
2 0 0 0 13 0 70 11 CI9 list_type0 0 1 uI10 notransmit0 0 1 lCCCDCCDI12 finger_in
dex0 0 1 dI12 finger_block1012 0 CZ3 0 4 T1 0 0 5 20 1 14 14 0 13 255 4 91 0 1 0
 15 0 0 16 0 0 67 255 5 86 0 15 17 0 0 +18 0 -1 0 ?0 30 255 6 90 0 19 20 0 0 +-.
080830255635285 .0025 -.0178252910111599 0 -1 0 0 29 255 7 67 0 21 22 0 -.073913
6699599264 0 -.01801921397402045 0 19 8 CCCCCCCA5 owner12 0 Z8 1 0 1 16 0 23 V0
 0 16 255 9 73 24 ?25 0 26 20 0 0 1 0 18 255 10 15 0 27 0 28 29 ?1 0 17 255 27 0
 30 31 32 10 33 34 0 35 +0 18 28 10 0 32 10 36 37 ?1 0 29 29 17 0 10 37 38 -.073
9136699599264 .0025 -.01801921397402045 0 29 37 12 0 28 39 29 -.0787876004264875
 .0025 -.0096288137809218 0 29 38 70 0 40 29 41 -.080830255635285 0 -.0178252910
111599 0 18 40 60 0 42 43 0 38 ?1 0 29 41 69 0 43 38 22 -.0853421965711732 0 -.0
103269364472197 0 18 43 58 0 44 45 40 41 ?1 0 29 22 68 0 45 41 7 -.0787876004264
875 0 -.0096288137809218 0 18 45 56 0 46 21 43 22 ?1 0 17 46 0 47 48 25 45 44 49
 0 50 +0 18 21 54 0 51 52 45 7 ?1 0 17 51 0 53 35 50 21 54 55 0 56 +0 18 52 2 0
 31 36 21 57 ?1 0 17 31 0 30 58 27 52 59 60 0 61 +0 18 36 5 0 62 28 52 39 ?1 0 2
9 57 4 0 52 0 39 -.080830255635285 .0025 -.0178252910111599 0 29 39 7 0 36 57 37
 -.0853421965711732 .0025 -.0103269364472197 0 17 62 0 47 25 48 36 32 63 0 58 -0
 15 255 47 79 0 46 64 0 0 17 25 0 47 46 62 43 65 9 0 66 +0 17 48 0 47 62 46 28 5
0 26 0 33 -0 17 32 0 30 27 58 28 62 63 0 48 +0 16 63 11 67 ?32 34 68 69 0 0 1 0
 17 58 0 30 32 31 36 70 68 0 65 +0 15 30 23 0 58 71 0 0 17 70 0 72 73 65 52 58 6
8 0 0 -0 16 68 6 74 ?58 63 75 18 0 0 1 0 17 65 0 72 70 66 36 25 9 0 0 -0 15 72 8
1 0 66 15 0 0 17 66 0 72 65 73 43 76 77 0 0 +0 17 73 0 72 66 70 40 61 19 0 76 +0
 17 76 0 78 79 44 40 66 77 0 0 -0 16 77 52 80 ?66 49 0 81 0 0 1 0 81 1 80 113 82
 77 0 0 0 67 83 0 16 49 50 84 ?46 55 77 85 0 0 1 0 134 255 81 66 0 77 86 85 0 +8
7 88 0 134 86 22 0 60 89 81 0 +90 91 0 134 85 65 0 49 81 92 0 +93 94 0 136 255 8
7 3 20 3 18 6 FFF1 95 96 97 0 135 255 88 2 0 0 45 255 60 95 -.080830255635285 0
 -.0178252910111599 -.0810810868853643 0 -.0179483784298177 -.0809970327588058 0
 -.0175402720317192 -.0811044435969721 0 -.01721190768207255 -.0810953204189187
 0 -.01686971825263525 -.0811273652704553 0 -.0164991774989326 -.081084134399893
1 0 -.0161030822205114 -.0809903955280988 0 -.0156434286753065 -.081250540647289
 0 -.0153583251810657 -.0812377267201637 0 -.0150052436173784 -.0815149874952168
 0 -.01473905711752742 -.0818659861564336 0 -.01439604088074516 -.08228739908682
51 0 -.01384748477787852 -.0828270860397704 0 -.0132129923861617 -.0833329320349
75 0 -.0125779426351849 -.0839834164131122 0 -.01208936926223134 -.0840344667739
86 0 -.0114791736560445 -.0844792972853955 0 -.01082356620012938 -.0850394903073
79 0 -.01060325822828016 -.0853421965711732 0 -.0103269364472197 0 127 255 18 96
 4 1 1 1 1 1 1 1 1 1 1 1 1 1 1 1 1 4 0 128 255 18 97 0 .0517549553097352 .086707
3018927552 .1225008341782902 .158657561027307 .2068584951712005 .252220816566589
5 .2940228483838025 .321831257294934 .359034258826924 .4086857184488355 .4858666
22763016 .57781811333861 .67735674982822 .753659108090365 .81665191512381 .86684
6949964681 1 0 134 92 64 0 55 85 98 0 +99 100 0 136 93 3 9 3 7 6 FFF1 101 102 10
3 0 135 94 2 0 0 45 27 101 -.0853421965711732 0 -.0103269364472197 -.08492708172
98153 0 -.01008152893644928 -.0840930834906115 0 -.00976042030158852 -.082810005
0172086 0 -.00968305821398783 -.0816355289190699 0 -.00963036791272314 -.0806224
946126889 0 -.00955544710649642 -.0796770490918908 0 -.00943903383432293 -.07910
30634927458 0 -.00950637223179893 -.0787876004264875 0 -.0096288137809218 0 127
 7 102 4 1 1 1 1 1 4 0 128 7 103 0 .216566013987959 .393501609982701 .5732820123
8485 .745110239440002 .849203750029796 1 0 16 55 48 104 ?51 75 49 92 0 0 1 0 134
 98 63 0 75 92 105 0 +106 107 0 136 99 3 32 3 30 6 FFF1 108 109 110 0 135 100 2
 0 0 45 96 108 -.0787876004264875 0 -.0096288137809218 -.0785491290100555 0 -.00
977221996117708 -.078797451749558 0 -.01017862468836864 -.0784537520491654 0 -.0
104333737736247 -.0782991814506617 0 -.01064834356735072 -.0782571448273876 0 -.
01090065650828852 -.0781389384513839 0 -.01112292688026008 -.0779674940198075 0
 -.01131998753084862 -.0778131495148609 0 -.01155428650040342 -.0776440566872593
 0 -.01182829980859792 -.0777012520623008 0 -.01218297676821072 -.07748089200380
45 0 -.01243172245650524 -.0774021305093137 0 -.01273599155633824 -.077137536892
5426 0 -.01288205522898018 -.0769094215906136 0 -.01305879294336924 -.0766034242
190386 0 -.01324768357262514 -.0762710023213351 0 -.01352444979293816 -.07589681
82313914 0 -.01388435835110774 -.0757394561830315 0 -.01430363937113612 -.075580
7022276441 0 -.01463297935810426 -.0753954713570862 0 -.01486556738642226 -.0752
460377590442 0 -.01511989195339255 -.0750279058974193 0 -.01532523786806805 -.07
48262528229065 0 -.0155317743636288 -.0745633360871764 0 -.01570049699462125 -.0
743972762822053 0 -.01604359488963465 -.0740399993727578 0 -.01633282523817735 -
.074080436440097 0 -.01687988733498 -.0737185607205482 0 -.01718689277032515 -.0
734950553036047 0 -.017642920629905 -.0735832474548981 0 -.0181049105811029 -.07
39136699599264 0 -.01801921397402045 0 127 30 109 4 1 1 1 1 1 1 1 1 1 1 1 1 1 1
 1 1 1 1 1 1 1 1 1 1 1 1 1 1 4 0 128 30 110 0 .0605922630165804 .086960364450062
2 .1119655561737024 .1355797871471772 .159098156309078 .183316365831529 .2103019
37835561 .2400759599018095 .273100007775479 .3042791473280945 .3311861825821185
 .3583915473252195 .386219300467369 .4155307078458925 .461034187247772 .51072372
7751817 .559519904956434 .589149969968683 .615166744893777 .644628527406226 .673
387484387599 .700573714675872 .727601825851142 .76143840481567 .806563215214285
 .853093741429808 .898422381817502 .935390346917021 1 0 16 75 46 111 ?42 68 55 9
8 0 0 1 0 30 105 87 0 112 98 113 0 +-.0739136699599264 .0025 -.01801921397402045
 0 -1 0 0 136 106 3 4 3 2 5 FFF1 114 115 116 0 135 107 2 0 0 45 12 114 -.0739136
699599264 0 -.01801921397402045 -.0762191985183793 0 -.01795457298640025 -.07852
47270768321 0 -.0178899319987801 -.080830255635285 0 -.0178252910111599 0 127 2
 115 4 4 0 128 2 116 0 1 0 16 112 71 117 ?56 26 19 105 0 0 1 0 30 113 88 0 26 10
5 20 0 +-.0787876004264875 .0025 -.0096288137809218 0 -1 0 0 16 26 72 118 ?50 9
 112 113 0 0 1 0 30 20 89 0 9 113 6 0 +-.0853421965711732 .0025 -.01032693644721
97 0 -1 0 0 81 1 118 118 82 26 0 0 74 117 119 0 17 50 0 53 51 33 45 48 26 0 54 +
0 15 53 77 0 51 120 0 0 17 33 0 53 50 35 28 27 34 0 0 -0 17 54 0 78 44 79 45 51
 55 0 0 -0 15 78 45 0 76 121 0 0 17 44 0 78 76 54 43 46 49 0 25 -0 17 79 0 78 54
 76 21 42 75 0 0 -0 17 42 0 122 61 56 40 79 75 0 73 +0 15 122 75 0 42 123 0 0 17
 61 0 122 59 42 52 73 19 0 70 -0 17 56 0 122 42 59 21 35 112 0 79 +0 17 59 0 122
 56 61 10 31 60 0 0 -0 17 35 0 53 33 51 10 56 112 0 59 -0 16 60 20 124 ?31 19 34
 86 0 0 1 0 81 1 124 122 82 60 0 0 104 125 126 0 16 19 74 125 ?73 112 60 6 0 0 1
 0 16 34 16 127 ?27 60 63 89 0 0 1 0 81 1 127 116 82 34 0 0 84 74 128 0 134 89 1
9 0 34 69 86 129 +130 131 0 134 69 14 0 63 18 89 132 +133 134 0 141 255 129 135
 129 129 89 0 136 130 3 32 3 30 6 FFF1 136 137 138 0 135 131 2 0 0 45 96 136 -.0
787876004264875 .0025 -.0096288137809218 -.0785491290100555 .0025 -.009772219961
17708 -.078797451749558 .0025 -.01017862468836864 -.0784537520491654 .0025 -.010
4333737736247 -.0782991814506617 .0025 -.01064834356735072 -.0782571448273876 .0
025 -.01090065650828852 -.0781389384513839 .0025 -.01112292688026008 -.077967494
0198075 .0025 -.01131998753084862 -.0778131495148609 .0025 -.01155428650040342 -
.0776440566872593 .0025 -.01182829980859792 -.0777012520623008 .0025 -.012182976
76821072 -.0774808920038045 .0025 -.01243172245650524 -.0774021305093137 .0025 -
.01273599155633824 -.0771375368925426 .0025 -.01288205522898018 -.07690942159061
36 .0025 -.01305879294336924 -.0766034242190386 .0025 -.01324768357262514 -.0762
710023213351 .0025 -.01352444979293816 -.0758968182313914 .0025 -.01388435835110
774 -.0757394561830315 .0025 -.01430363937113612 -.0755807022276441 .0025 -.0146
3297935810426 -.0753954713570862 .0025 -.01486556738642226 -.0752460377590442 .0
025 -.01511989195339255 -.0750279058974193 .0025 -.01532523786806805 -.074826252
8229065 .0025 -.0155317743636288 -.0745633360871764 .0025 -.01570049699462125 -.
0743972762822053 .0025 -.01604359488963465 -.0740399993727578 .0025 -.0163328252
3817735 -.074080436440097 .0025 -.01687988733498 -.0737185607205482 .0025 -.0171
8689277032515 -.0734950553036047 .0025 -.017642920629905 -.0735832474548981 .002
5 -.0181049105811029 -.0739136699599264 .0025 -.01801921397402045 0 127 30 137 4
 1 1 1 1 1 1 1 1 1 1 1 1 1 1 1 1 1 1 1 1 1 1 1 1 1 1 1 1 4 0 128 30 138 0 .06059
22630165804 .0869603644500622 .1119655561737024 .1355797871471772 .1590981563090
78 .183316365831529 .210301937835561 .2400759599018095 .273100007775479 .3042791
473280945 .3311861825821185 .3583915473252195 .386219300467369 .4155307078458925
 .461034187247772 .510723727751817 .559519904956434 .589149969968683 .6151667448
93777 .644628527406226 .673387484387599 .700573714675872 .727601825851142 .76143
840481567 .806563215214285 .853093741429808 .898422381817502 .935390346917021 1
 0 67 135 84 0 120 139 17 0 +89 0 -1 0 ?0 14 255 120 78 140 ?123 64 53 4 135 -0
 0 123 64 23 0 50 255 139 83 0 123 141 135 0 +-.0739136699599264 .0025 -.0180192
1397402045 .02802636964906545 0 .999607184150001 .999607184150001 0 -.0280263696
4906545 0 67 17 85 0 64 135 5 0 +69 0 -1 0 .002566700903607295 0 14 64 80 142 ?1
20 15 47 4 17 -0 0 120 15 23 0 81 1 142 134 143 64 144 0 145 140 146 0 14 15 82
 145 ?64 0 72 4 5 -0 0 64 0 23 0 13 23 3 0 0 0 0 0 0 8 15 0 81 1 145 133 143 15
 147 0 0 142 148 0 80 255 1 143 0 149 8001 0 0 0 0 3 5 0 0 0 FFFFTFTFFFFFFF2 0 8
1 1 147 130 82 15 0 145 150 0 151 0 83 255 3 148 .596063172350652 .6666666666666
67 .686259250782025 0 80 1 82 152 153 9000 1 1 1 1 1 1 1 1 0 FFFFTFTFFFFFFF3 0 8
1 1 150 129 82 123 0 154 144 147 155 0 84 255 32 151 16a3a57e47e30689c4405153be0
9e5c20 14 123 76 154 ?71 120 122 4 139 -0 0 71 120 23 0 81 1 154 136 143 123 150
 0 140 156 157 0 81 1 144 128 82 64 0 142 158 150 159 0 84 32 155 a2e31538a663e3
a524068aefd4ebb3870 81 1 158 127 82 120 0 140 160 144 161 0 84 32 159 d1300e0484
6887fdfa150a8547e08cca0 81 1 140 135 143 120 158 0 142 154 162 0 81 1 160 126 82
 121 0 163 164 158 165 0 84 32 161 13e76647ca7b9b7a3585cda5b8a6fe130 14 121 42 1
63 ?0 71 78 4 141 +0 0 0 71 23 0 81 1 163 138 143 121 160 0 156 0 166 0 81 1 164
 125 82 71 0 156 24 160 167 0 84 32 165 9e861322bd3eea1e93c4615c3d9232090 14 71
 24 156 ?121 123 30 4 168 -0 0 121 123 23 0 81 1 156 137 143 71 164 0 154 163 16
9 0 81 1 24 124 82 9 0 0 125 164 170 0 84 32 167 ea2e9b25805807b3155166f528007ab
50 81 1 125 123 82 19 0 0 124 24 171 0 84 32 170 e2d475c3ab6865f7d086fdb169fd241
60 84 32 171 771ce1c777f8600dd5a3ce6f4bb0f6a80 83 3 169 .596063172350652 .666666
666666667 .686259250782025 0 50 168 25 0 71 0 141 0 +-.0823453819678427 .0025 -.
0137866482684449 0 -1 0 0 0 -1 0 50 141 62 0 121 168 139 0 +-.0823453819678427 0
 -.0137866482684449 0 -1 0 0 0 -1 0 83 3 166 .596063172350652 .666666666666667 .
686259250782025 0 83 3 162 .596063172350652 .666666666666667 .686259250782025 0
 83 3 157 .596063172350652 .666666666666667 .686259250782025 0 79 255 15 153 UGS
/ObjectState0 79 15 149 SDL/TYSA_COLOUR0 83 3 146 .596063172350652 .666666666666
667 .686259250782025 0 134 18 9 0 68 0 69 172 +173 174 0 141 132 17 132 132 69 0
 136 133 3 9 3 7 6 FFF1 175 176 177 0 135 134 2 0 0 45 27 175 -.0853421965711732
 .0025 -.0103269364472197 -.0849270817298153 .0025 -.01008152893644928 -.0840930
834906115 .0025 -.00976042030158852 -.0828100050172086 .0025 -.00968305821398783
 -.0816355289190699 .0025 -.00963036791272314 -.0806224946126889 .0025 -.0095554
4710649642 -.0796770490918908 .0025 -.00943903383432293 -.0791030634927458 .0025
 -.00950637223179893 -.0787876004264875 .0025 -.0096288137809218 0 127 7 176 4 1
 1 1 1 1 4 0 128 7 177 0 .216566013987959 .393501609982701 .57328201238485 .7451
10239440002 .849203750029796 1 0 141 172 5 172 172 18 0 136 173 3 20 3 18 6 FFF1
 178 179 180 0 135 174 2 0 0 45 60 178 -.080830255635285 .0025 -.017825291011159
9 -.0810810868853643 .0025 -.0179483784298177 -.0809970327588058 .0025 -.0175402
720317192 -.0811044435969721 .0025 -.01721190768207255 -.0810953204189187 .0025
 -.01686971825263525 -.0811273652704553 .0025 -.0164991774989326 -.0810841343998
931 .0025 -.0161030822205114 -.0809903955280988 .0025 -.0156434286753065 -.08125
0540647289 .0025 -.0153583251810657 -.0812377267201637 .0025 -.0150052436173784
 -.0815149874952168 .0025 -.01473905711752742 -.0818659861564336 .0025 -.0143960
4088074516 -.0822873990868251 .0025 -.01384748477787852 -.0828270860397704 .0025
 -.0132129923861617 -.083332932034975 .0025 -.0125779426351849 -.083983416413112
2 .0025 -.01208936926223134 -.084034466773986 .0025 -.0114791736560445 -.0844792
972853955 .0025 -.01082356620012938 -.085039490307379 .0025 -.01060325822828016
 -.0853421965711732 .0025 -.0103269364472197 0 127 18 179 4 1 1 1 1 1 1 1 1 1 1
 1 1 1 1 1 1 4 0 128 18 180 0 .0517549553097352 .0867073018927552 .1225008341782
902 .158657561027307 .2068584951712005 .2522208165665895 .2940228483838025 .3218
31257294934 .359034258826924 .4086857184488355 .485866622763016 .57781811333861
 .67735674982822 .753659108090365 .81665191512381 .866846949964681 1 0 81 1 84 1
15 82 49 0 0 67 127 181 0 81 1 74 117 82 68 0 0 127 118 182 0 84 32 128 6da9ad57
024e9bb40491f8bdb13758180 84 32 182 6e98dd34da17c69388e16310797e49fd0 81 1 67 11
4 82 63 0 0 80 84 183 0 84 32 181 89ab8e8f8f11314298f42f5e4a9f6e940 84 32 183 72
ddff9d28b2ad6b890905c2bce3befb0 81 1 104 121 82 55 0 0 111 124 184 0 84 32 126 9
0fbca7e1356bc782e61780e03091f730 81 1 111 120 82 75 0 0 117 104 185 0 84 32 184
 595f39dada35a0ca1493ad9113e4e82c0 81 1 117 119 82 112 0 0 118 111 186 0 84 32 1
85 49e6a5accaf35257a8dd240b2f2e80e70 84 32 186 3db6ecb074287b86a56cc0de3a65dc490
 84 32 119 3901d8282aa71334f81a4509b4701b9f0 136 90 3 4 3 2 5 FFF1 187 188 189 0
 135 91 2 0 0 45 12 187 -.0739136699599264 .0025 -.01801921397402045 -.076219198
5183793 .0025 -.01795457298640025 -.0785247270768321 .0025 -.0178899319987801 -.
080830255635285 .0025 -.0178252910111599 0 127 2 188 4 4 0 128 2 189 0 1 0 84 32
 83 034b7f090964860b0fb88cdd0539ae480 19 16 92 0 1 0 8 4 S0 0 74 4 CI16 index_ma
p_offset0 0 1 dCCZ20 14 5 0 0 147 190 12 163 2 0 0 0 0 0 0 0 0 0 0 0 0 0 0 0 0 8
1 2 190 131 191 1 0 12 0 0 192 193 0 81 1 12 132 194 1 190 2 0 0 195 0 80 1 194
 82 196 9000 0 0 0 0 3 5 0 0 0 FFTFFFFFFFFFFF1 0 82 255 1 195 9 0 79 7 196 body_
id0 80 2 191 197 198 8004 0 0 0 0 3 5 0 0 0 FFTFFFFFFFFFFF2 3 0 83 1 192 7830.64
 0 84 8 193 Kg/Cu M 0 79 16 198 SDL/TYSA_DENSITY0 80 1 11 194 199 9000 0 0 0 0 3
 5 0 0 0 FFTFFFFFFFFFFF1 0 82 1 13 129 0 79 24 199 UG2/BODY_COLOR_ATTRIBUTE0 1 0
 
