**ABCDEFGHIJKLMNOPQRSTUVWXYZabcdefghijklmnopqrstuvwxyz**************************
**PARASOLID !"#$%&'()*+,-./:;<=>?@[\]^_`{|}~0123456789**************************
**PART1;
MC=unknown;
MC_MODEL=unknown;
MC_ID=unknown;
OS=unknown;
OS_RELEASE=unknown;
FRU=sdl_parasolid_customer_support;
APPL=parasolid_acceptance_tests;
SITE=unknown;
USER=unknown;
FORMAT=text;
GUISE=transmit;
KEY=/lore/mersoj/real-fcl/models/FCL_model_thin_nat.x_t;
FILE=/lore/mersoj/real-fcl/models/FCL_model_thin_nat.x_t;
DATE=unknown;
**PART2;
SCH=SCH_3300252_32001;
USFLD_SIZE=1;
**PART3;
**END_OF_HEADER*****************************************************************
T51 : TRANSMIT FILE created by modeller version 330025223 SCH_3300252_32001_1300
6229 1 12 34 CCCCCCI4 mesh1006 0 I8 polyline1008 0 CCCCCCCDI5 owner1040 0 CCCCCC
I13 boundary_mesh1006 0 I17 boundary_polyline1008 0 CCCA16 index_map_offset0 0 1
 dA9 index_map82 0 A17 node_id_index_map82 0 A20 schema_embedding_map82 0 A5 chi
ld12 0 A14 lowest_node_id0 0 1 dA16 mesh_offset_data206 0 Z1 148 2 3 0 0 0 0 0 0
 1e3 1e-8 0 0 0 1 0 1 1 4 5 6 7 0 0 8 9 10 0 0 0 0 0 0 0 0 81 255 1 2 139 11 1 1
2 0 0 0 13 0 70 11 CI9 list_type0 0 1 uI10 notransmit0 0 1 lCCCDCCDI12 finger_in
dex0 0 1 dI12 finger_block1012 0 CZ3 0 4 T1 0 0 5 20 1 14 14 0 13 255 4 91 0 1 0
 15 0 0 16 0 0 50 255 5 148 0 17 18 0 0 +-.0823453819678427 5e-4 -.0137866482684
449 0 -1 0 0 0 -1 0 134 255 6 147 0 19 20 0 0 +21 22 0 29 255 7 143 0 23 24 0 -.
0853421965711732 5e-4 -.0103269364472197 0 19 8 CCCCCCCA5 owner12 0 Z8 1 0 1 16
 0 25 V0 0 16 255 9 73 0 ?26 0 27 28 0 0 1 0 18 255 10 15 0 29 0 30 31 ?1 0 17 2
55 29 0 32 33 34 10 35 36 0 37 +0 18 30 10 0 34 10 23 24 ?1 0 29 31 141 0 10 38
 24 -.0739136699599264 5e-4 -.01801921397402045 0 29 38 140 0 39 40 31 -.0808302
55635285 5e-4 -.0178252910111599 0 29 24 142 0 30 31 7 -.0787876004264875 5e-4 -
.0096288137809218 0 18 39 2 0 33 23 41 38 ?1 0 29 40 67 0 41 42 38 -.07391366995
99264 0 -.01801921397402045 0 18 41 54 0 43 39 44 40 ?1 0 29 42 68 0 44 45 40 -.
0787876004264875 0 -.0096288137809218 0 18 44 56 0 46 41 47 42 ?1 0 29 45 69 0 4
7 48 42 -.0853421965711732 0 -.0103269364472197 0 18 47 58 0 49 44 50 45 ?1 0 29
 48 70 0 50 0 45 -.080830255635285 0 -.0178252910111599 0 18 50 60 0 51 47 0 48
 ?1 0 17 51 0 52 53 54 50 55 56 0 57 +0 15 255 52 75 0 51 58 0 0 17 53 0 52 59 5
1 39 57 60 0 61 -0 17 54 0 52 51 59 41 37 62 0 55 +0 17 55 0 63 64 65 41 51 56 0
 0 -0 16 56 46 66 ?51 67 68 69 0 0 1 0 17 57 0 70 71 61 50 53 60 0 65 +0 15 70 8
1 0 71 15 0 0 17 71 0 70 72 57 47 65 73 0 0 +0 17 61 0 70 57 72 39 74 67 0 0 -0
 16 60 74 0 ?57 62 75 76 0 0 1 0 17 65 0 63 55 49 50 71 73 0 0 -0 15 63 45 0 65
 77 0 0 17 49 0 63 65 64 47 46 78 0 26 -0 16 73 52 79 ?71 78 0 80 0 0 1 0 81 1 7
9 113 81 73 0 0 0 82 83 0 16 78 50 82 ?46 68 73 84 0 0 1 0 134 80 66 0 73 85 84
 0 +86 87 0 134 85 19 0 1 88 80 89 +90 91 0 134 84 65 0 78 80 92 0 +93 94 0 136
 255 86 3 20 3 18 6 FFF1 95 96 97 0 135 255 87 1 0 0 45 255 60 95 -.080830255635
285 0 -.0178252910111599 -.0810810868853643 0 -.0179483784298177 -.0809970327588
058 0 -.0175402720317192 -.0811044435969721 0 -.01721190768207255 -.081095320418
9187 0 -.01686971825263525 -.0811273652704553 0 -.0164991774989326 -.08108413439
98931 0 -.0161030822205114 -.0809903955280988 0 -.0156434286753065 -.08125054064
7289 0 -.0153583251810657 -.0812377267201637 0 -.0150052436173784 -.081514987495
2168 0 -.01473905711752742 -.0818659861564336 0 -.01439604088074516 -.0822873990
868251 0 -.01384748477787852 -.0828270860397704 0 -.0132129923861617 -.083332932
034975 0 -.0125779426351849 -.0839834164131122 0 -.01208936926223134 -.084034466
773986 0 -.0114791736560445 -.0844792972853955 0 -.01082356620012938 -.085039490
307379 0 -.01060325822828016 -.0853421965711732 0 -.0103269364472197 0 127 255 1
8 96 4 1 1 1 1 1 1 1 1 1 1 1 1 1 1 1 1 4 0 128 255 18 97 0 .0517549553097352 .08
67073018927552 .1225008341782902 .158657561027307 .2068584951712005 .25222081656
65895 .2940228483838025 .321831257294934 .359034258826924 .4086857184488355 .485
866622763016 .57781811333861 .67735674982822 .753659108090365 .81665191512381 .8
66846949964681 1 0 134 92 64 0 68 84 69 0 +98 99 0 136 93 3 9 3 7 6 FFF1 100 101
 102 0 135 94 1 0 0 45 27 100 -.0853421965711732 0 -.0103269364472197 -.08492708
17298153 0 -.01008152893644928 -.0840930834906115 0 -.00976042030158852 -.082810
0050172086 0 -.00968305821398783 -.0816355289190699 0 -.00963036791272314 -.0806
224946126889 0 -.00955544710649642 -.0796770490918908 0 -.00943903383432293 -.07
91030634927458 0 -.00950637223179893 -.0787876004264875 0 -.0096288137809218 0 1
27 7 101 4 1 1 1 1 1 4 0 128 7 102 0 .216566013987959 .393501609982701 .57328201
238485 .745110239440002 .849203750029796 1 0 16 68 48 103 ?43 56 78 92 0 0 1 0 1
34 69 63 0 56 92 104 0 +105 106 0 136 98 3 32 3 30 6 FFF1 107 108 109 0 135 99 1
 0 0 45 96 107 -.0787876004264875 0 -.0096288137809218 -.0785491290100555 0 -.00
977221996117708 -.078797451749558 0 -.01017862468836864 -.0784537520491654 0 -.0
104333737736247 -.0782991814506617 0 -.01064834356735072 -.0782571448273876 0 -.
01090065650828852 -.0781389384513839 0 -.01112292688026008 -.0779674940198075 0
 -.01131998753084862 -.0778131495148609 0 -.01155428650040342 -.0776440566872593
 0 -.01182829980859792 -.0777012520623008 0 -.01218297676821072 -.07748089200380
45 0 -.01243172245650524 -.0774021305093137 0 -.01273599155633824 -.077137536892
5426 0 -.01288205522898018 -.0769094215906136 0 -.01305879294336924 -.0766034242
190386 0 -.01324768357262514 -.0762710023213351 0 -.01352444979293816 -.07589681
82313914 0 -.01388435835110774 -.0757394561830315 0 -.01430363937113612 -.075580
7022276441 0 -.01463297935810426 -.0753954713570862 0 -.01486556738642226 -.0752
460377590442 0 -.01511989195339255 -.0750279058974193 0 -.01532523786806805 -.07
48262528229065 0 -.0155317743636288 -.0745633360871764 0 -.01570049699462125 -.0
743972762822053 0 -.01604359488963465 -.0740399993727578 0 -.01633282523817735 -
.074080436440097 0 -.01687988733498 -.0737185607205482 0 -.01718689277032515 -.0
734950553036047 0 -.017642920629905 -.0735832474548981 0 -.0181049105811029 -.07
39136699599264 0 -.01801921397402045 0 127 30 108 4 1 1 1 1 1 1 1 1 1 1 1 1 1 1
 1 1 1 1 1 1 1 1 1 1 1 1 1 1 4 0 128 30 109 0 .0605922630165804 .086960364450062
2 .1119655561737024 .1355797871471772 .159098156309078 .183316365831529 .2103019
37835561 .2400759599018095 .273100007775479 .3042791473280945 .3311861825821185
 .3583915473252195 .386219300467369 .4155307078458925 .461034187247772 .51072372
7751817 .559519904956434 .589149969968683 .615166744893777 .644628527406226 .673
387484387599 .700573714675872 .727601825851142 .76143840481567 .806563215214285
 .853093741429808 .898422381817502 .935390346917021 1 0 30 255 104 87 0 62 69 11
0 0 +-.0739136699599264 .0025 -.01801921397402045 0 -1 0 0 136 105 3 4 3 2 5 FFF
1 111 112 113 0 135 106 1 0 0 45 12 111 -.0739136699599264 0 -.01801921397402045
 -.0762191985183793 0 -.01795457298640025 -.0785247270768321 0 -.017889931998780
1 -.080830255635285 0 -.0178252910111599 0 127 2 112 4 4 0 128 2 113 0 1 0 16 62
 71 0 ?54 27 60 104 0 0 1 0 30 110 88 0 27 104 28 0 +-.0787876004264875 .0025 -.
0096288137809218 0 -1 0 0 16 27 72 0 ?114 9 62 110 0 0 1 0 30 28 89 0 9 110 76 0
 +-.0853421965711732 .0025 -.0103269364472197 0 -1 0 0 30 76 90 0 60 28 115 0 +-
.080830255635285 .0025 -.0178252910111599 0 -1 0 0 134 115 144 0 67 76 116 0 +11
7 118 0 16 67 6 0 ?74 19 56 115 0 0 1 0 134 116 145 0 75 115 20 0 +119 120 0 136
 117 3 20 3 18 6 FFF1 121 122 123 0 135 118 1 0 0 45 60 121 -.080830255635285 5e
-4 -.0178252910111599 -.0810810868853643 5e-4 -.0179483784298177 -.0809970327588
058 5e-4 -.0175402720317192 -.0811044435969721 5e-4 -.01721190768207255 -.081095
3204189187 5e-4 -.01686971825263525 -.0811273652704553 5e-4 -.0164991774989326 -
.0810841343998931 5e-4 -.0161030822205114 -.0809903955280988 5e-4 -.015643428675
3065 -.081250540647289 5e-4 -.0153583251810657 -.0812377267201637 5e-4 -.0150052
436173784 -.0815149874952168 5e-4 -.01473905711752742 -.0818659861564336 5e-4 -.
01439604088074516 -.0822873990868251 5e-4 -.01384748477787852 -.0828270860397704
 5e-4 -.0132129923861617 -.083332932034975 5e-4 -.0125779426351849 -.08398341641
31122 5e-4 -.01208936926223134 -.084034466773986 5e-4 -.0114791736560445 -.08447
92972853955 5e-4 -.01082356620012938 -.085039490307379 5e-4 -.01060325822828016
 -.0853421965711732 5e-4 -.0103269364472197 0 127 18 122 4 1 1 1 1 1 1 1 1 1 1 1
 1 1 1 1 1 4 0 128 18 123 0 .0517549553097352 .0867073018927552 .122500834178290
2 .158657561027307 .2068584951712005 .2522208165665895 .2940228483838025 .321831
257294934 .359034258826924 .4086857184488355 .485866622763016 .57781811333861 .6
7735674982822 .753659108090365 .81665191512381 .866846949964681 1 0 16 75 20 0 ?
33 60 36 116 0 0 1 0 134 20 146 0 36 116 6 0 +124 125 0 136 119 3 4 3 2 5 FFF1 1
26 127 128 0 135 120 1 0 0 45 12 126 -.0739136699599264 5e-4 -.01801921397402045
 -.0762191985183793 5e-4 -.01795457298640025 -.0785247270768321 5e-4 -.017889931
9987801 -.080830255635285 5e-4 -.0178252910111599 0 127 2 127 4 4 0 128 2 128 0
 1 0 16 36 16 0 ?29 75 19 20 0 0 1 0 136 124 3 32 3 30 6 FFF1 129 130 131 0 135
 125 1 0 0 45 96 129 -.0787876004264875 5e-4 -.0096288137809218 -.07854912901005
55 5e-4 -.00977221996117708 -.078797451749558 5e-4 -.01017862468836864 -.0784537
520491654 5e-4 -.0104333737736247 -.0782991814506617 5e-4 -.01064834356735072 -.
0782571448273876 5e-4 -.01090065650828852 -.0781389384513839 5e-4 -.011122926880
26008 -.0779674940198075 5e-4 -.01131998753084862 -.0778131495148609 5e-4 -.0115
5428650040342 -.0776440566872593 5e-4 -.01182829980859792 -.0777012520623008 5e-
4 -.01218297676821072 -.0774808920038045 5e-4 -.01243172245650524 -.077402130509
3137 5e-4 -.01273599155633824 -.0771375368925426 5e-4 -.01288205522898018 -.0769
094215906136 5e-4 -.01305879294336924 -.0766034242190386 5e-4 -.0132476835726251
4 -.0762710023213351 5e-4 -.01352444979293816 -.0758968182313914 5e-4 -.01388435
835110774 -.0757394561830315 5e-4 -.01430363937113612 -.0755807022276441 5e-4 -.
01463297935810426 -.0753954713570862 5e-4 -.01486556738642226 -.0752460377590442
 5e-4 -.01511989195339255 -.0750279058974193 5e-4 -.01532523786806805 -.07482625
28229065 5e-4 -.0155317743636288 -.0745633360871764 5e-4 -.01570049699462125 -.0
743972762822053 5e-4 -.01604359488963465 -.0740399993727578 5e-4 -.0163328252381
7735 -.074080436440097 5e-4 -.01687988733498 -.0737185607205482 5e-4 -.017186892
77032515 -.0734950553036047 5e-4 -.017642920629905 -.0735832474548981 5e-4 -.018
1049105811029 -.0739136699599264 5e-4 -.01801921397402045 0 127 30 130 4 1 1 1 1
 1 1 1 1 1 1 1 1 1 1 1 1 1 1 1 1 1 1 1 1 1 1 1 1 4 0 128 30 131 0 .0605922630165
804 .0869603644500622 .1119655561737024 .1355797871471772 .159098156309078 .1833
16365831529 .210301937835561 .2400759599018095 .273100007775479 .304279147328094
5 .3311861825821185 .3583915473252195 .386219300467369 .4155307078458925 .461034
187247772 .510723727751817 .559519904956434 .589149969968683 .615166744893777 .6
44628527406226 .673387484387599 .700573714675872 .727601825851142 .7614384048156
7 .806563215214285 .853093741429808 .898422381817502 .935390346917021 1 0 16 19
 11 0 ?34 36 67 6 0 0 1 0 17 34 0 32 29 74 30 132 19 0 133 +0 15 32 23 0 74 17 0
 0 17 74 0 32 34 33 23 61 67 0 72 +0 17 132 0 134 26 133 23 34 19 0 74 -0 17 133
 0 134 132 46 30 114 27 0 35 -0 15 134 79 0 46 135 0 0 17 46 0 134 133 26 44 49
 78 0 114 +0 17 114 0 136 43 35 44 133 27 0 64 +0 17 35 0 136 114 37 30 29 36 0
 0 -0 15 136 77 0 43 137 0 0 17 37 0 136 35 43 10 54 62 0 59 -0 17 43 0 136 37 1
14 41 64 68 0 54 +0 17 59 0 52 54 53 10 33 75 0 0 -0 17 33 0 32 74 29 39 59 75 0
 53 +0 17 64 0 63 49 55 44 43 68 0 0 -0 14 255 137 78 138 ?58 135 136 4 139 -0 0
 58 135 25 0 81 1 138 135 140 137 0 0 141 142 143 0 14 58 76 142 ?17 137 52 4 14
4 -0 0 17 137 25 0 14 135 80 141 ?137 15 134 4 145 -0 0 137 15 25 0 67 255 139 8
4 0 137 144 145 0 +85 0 -1 0 ?0 13 25 3 0 0 0 0 0 0 8 15 0 14 15 82 146 ?135 0 7
0 4 18 -0 0 135 0 25 0 81 1 146 133 140 15 0 0 0 141 147 0 67 18 86 0 15 145 5 0
 +148 0 -1 0 ?0 67 145 85 0 135 139 18 0 +88 0 -1 0 .002566700903607295 0 134 14
8 9 0 1 0 88 149 +150 151 0 134 88 14 0 1 148 85 152 +153 154 0 141 255 149 18 1
49 149 148 0 136 150 3 20 3 18 6 FFF1 155 156 157 0 135 151 1 0 0 45 60 155 -.08
0830255635285 .0025 -.0178252910111599 -.0810810868853643 .0025 -.01794837842981
77 -.0809970327588058 .0025 -.0175402720317192 -.0811044435969721 .0025 -.017211
90768207255 -.0810953204189187 .0025 -.01686971825263525 -.0811273652704553 .002
5 -.0164991774989326 -.0810841343998931 .0025 -.0161030822205114 -.0809903955280
988 .0025 -.0156434286753065 -.081250540647289 .0025 -.0153583251810657 -.081237
7267201637 .0025 -.0150052436173784 -.0815149874952168 .0025 -.01473905711752742
 -.0818659861564336 .0025 -.01439604088074516 -.0822873990868251 .0025 -.0138474
8477787852 -.0828270860397704 .0025 -.0132129923861617 -.083332932034975 .0025 -
.0125779426351849 -.0839834164131122 .0025 -.01208936926223134 -.084034466773986
 .0025 -.0114791736560445 -.0844792972853955 .0025 -.01082356620012938 -.0850394
90307379 .0025 -.01060325822828016 -.0853421965711732 .0025 -.0103269364472197 0
 127 18 156 4 1 1 1 1 1 1 1 1 1 1 1 1 1 1 1 1 4 0 128 18 157 0 .0517549553097352
 .0867073018927552 .1225008341782902 .158657561027307 .2068584951712005 .2522208
165665895 .2940228483838025 .321831257294934 .359034258826924 .4086857184488355
 .485866622763016 .57781811333861 .67735674982822 .753659108090365 .816651915123
81 .866846949964681 1 0 141 152 145 152 152 88 0 136 153 3 9 3 7 6 FFF1 158 159
 160 0 135 154 1 0 0 45 27 158 -.0853421965711732 .0025 -.0103269364472197 -.084
9270817298153 .0025 -.01008152893644928 -.0840930834906115 .0025 -.0097604203015
8852 -.0828100050172086 .0025 -.00968305821398783 -.0816355289190699 .0025 -.009
63036791272314 -.0806224946126889 .0025 -.00955544710649642 -.0796770490918908 .
0025 -.00943903383432293 -.0791030634927458 .0025 -.00950637223179893 -.07878760
04264875 .0025 -.0096288137809218 0 127 7 159 4 1 1 1 1 1 4 0 128 7 160 0 .21656
6013987959 .393501609982701 .57328201238485 .745110239440002 .849203750029796 1
 0 80 255 1 140 0 161 8001 0 0 0 0 3 5 0 0 0 FFFFTFTFFFFFFF2 0 81 1 141 134 140
 135 0 0 146 138 162 0 83 255 3 147 .596063172350652 .666666666666667 .686259250
782025 0 83 3 162 .596063172350652 .666666666666667 .686259250782025 0 79 255 15
 161 SDL/TYSA_COLOUR0 50 144 83 0 58 163 139 0 +-.0739136699599264 .0025 -.01801
921397402045 .02802636964906545 0 .999607184150001 .999607184150001 0 -.02802636
964906545 0 50 163 62 0 77 0 144 0 +-.0823453819678427 0 -.0137866482684449 0 -1
 0 0 0 -1 0 14 77 42 164 ?0 17 63 4 163 +0 0 0 17 25 0 81 1 164 138 140 77 165 0
 166 0 167 0 14 17 24 166 ?77 58 32 4 5 -0 0 77 58 25 0 81 1 166 137 140 17 0 0
 142 164 168 0 81 1 142 136 140 58 0 0 138 166 169 0 83 3 168 .596063172350652 .
666666666666667 .686259250782025 0 83 3 169 .596063172350652 .666666666666667 .6
86259250782025 0 81 1 165 126 81 77 0 164 103 0 170 0 83 3 167 .596063172350652
 .666666666666667 .686259250782025 0 80 1 81 171 172 9000 1 1 1 1 1 1 1 1 0 FFFF
TFTFFFFFFF3 0 81 1 103 121 81 68 0 0 66 165 173 0 84 255 32 170 9e861322bd3eea1e
93c4615c3d9232090 81 1 66 120 81 56 0 0 82 103 174 0 84 32 173 595f39dada35a0ca1
493ad9113e4e82c0 81 1 82 115 81 78 0 0 79 66 175 0 84 32 174 49e6a5accaf35257a8d
d240b2f2e80e70 84 32 175 89ab8e8f8f11314298f42f5e4a9f6e940 79 15 172 UGS/ObjectS
tate0 83 3 143 .596063172350652 .666666666666667 .686259250782025 0 17 26 0 134
 46 132 47 72 9 0 71 +0 17 72 0 70 61 71 23 26 9 0 0 -0 18 23 5 0 132 30 39 7 ?1
 0 141 89 139 89 89 85 0 136 90 3 32 3 30 6 FFF1 176 177 178 0 135 91 1 0 0 45 9
6 176 -.0787876004264875 .0025 -.0096288137809218 -.0785491290100555 .0025 -.009
77221996117708 -.078797451749558 .0025 -.01017862468836864 -.0784537520491654 .0
025 -.0104333737736247 -.0782991814506617 .0025 -.01064834356735072 -.0782571448
273876 .0025 -.01090065650828852 -.0781389384513839 .0025 -.01112292688026008 -.
0779674940198075 .0025 -.01131998753084862 -.0778131495148609 .0025 -.0115542865
0040342 -.0776440566872593 .0025 -.01182829980859792 -.0777012520623008 .0025 -.
01218297676821072 -.0774808920038045 .0025 -.01243172245650524 -.077402130509313
7 .0025 -.01273599155633824 -.0771375368925426 .0025 -.01288205522898018 -.07690
94215906136 .0025 -.01305879294336924 -.0766034242190386 .0025 -.013247683572625
14 -.0762710023213351 .0025 -.01352444979293816 -.0758968182313914 .0025 -.01388
435835110774 -.0757394561830315 .0025 -.01430363937113612 -.0755807022276441 .00
25 -.01463297935810426 -.0753954713570862 .0025 -.01486556738642226 -.0752460377
590442 .0025 -.01511989195339255 -.0750279058974193 .0025 -.01532523786806805 -.
0748262528229065 .0025 -.0155317743636288 -.0745633360871764 .0025 -.01570049699
462125 -.0743972762822053 .0025 -.01604359488963465 -.0740399993727578 .0025 -.0
1633282523817735 -.074080436440097 .0025 -.01687988733498 -.0737185607205482 .00
25 -.01718689277032515 -.0734950553036047 .0025 -.017642920629905 -.073583247454
8981 .0025 -.0181049105811029 -.0739136699599264 .0025 -.01801921397402045 0 127
 30 177 4 1 1 1 1 1 1 1 1 1 1 1 1 1 1 1 1 1 1 1 1 1 1 1 1 1 1 1 1 4 0 128 30 178
 0 .0605922630165804 .0869603644500622 .1119655561737024 .1355797871471772 .1590
98156309078 .183316365831529 .210301937835561 .2400759599018095 .273100007775479
 .3042791473280945 .3311861825821185 .3583915473252195 .386219300467369 .4155307
078458925 .461034187247772 .510723727751817 .559519904956434 .589149969968683 .6
15166744893777 .644628527406226 .673387484387599 .700573714675872 .7276018258511
42 .76143840481567 .806563215214285 .853093741429808 .898422381817502 .935390346
917021 1 0 84 32 83 034b7f090964860b0fb88cdd0539ae480 19 16 92 0 1 0 8 4 S0 0 13
6 21 3 9 3 7 6 FFF1 179 180 181 0 135 22 1 0 0 45 27 179 -.0853421965711732 5e-4
 -.0103269364472197 -.0849270817298153 5e-4 -.01008152893644928 -.08409308349061
15 5e-4 -.00976042030158852 -.0828100050172086 5e-4 -.00968305821398783 -.081635
5289190699 5e-4 -.00963036791272314 -.0806224946126889 5e-4 -.00955544710649642
 -.0796770490918908 5e-4 -.00943903383432293 -.0791030634927458 5e-4 -.009506372
23179893 -.0787876004264875 5e-4 -.0096288137809218 0 127 7 180 4 1 1 1 1 1 4 0
 128 7 181 0 .216566013987959 .393501609982701 .57328201238485 .745110239440002
 .849203750029796 1 0 74 4 CI16 index_map_offset0 0 1 dCCZ20 14 5 0 0 165 182 12
 164 2 0 0 0 0 0 0 0 0 0 0 0 0 0 0 0 0 81 2 182 131 183 1 0 12 0 0 184 185 0 81
 1 12 132 186 1 182 2 0 0 187 0 80 1 186 81 188 9000 0 0 0 0 3 5 0 0 0 FFTFFFFFF
FFFFF1 0 82 255 1 187 9 0 79 7 188 body_id0 80 2 183 189 190 8004 0 0 0 0 3 5 0
 0 0 FFTFFFFFFFFFFF2 3 0 83 1 184 7830.64 0 84 8 185 Kg/Cu M 0 79 16 190 SDL/TYS
A_DENSITY0 80 1 11 186 191 9000 0 0 0 0 3 5 0 0 0 FFTFFFFFFFFFFF1 0 82 1 13 129
 0 79 24 191 UG2/BODY_COLOR_ATTRIBUTE0 1 0 
