**ABCDEFGHIJKLMNOPQRSTUVWXYZabcdefghijklmnopqrstuvwxyz**************************
**PARASOLID !"#$%&'()*+,-./:;<=>?@[\]^_`{|}~0123456789**************************
**PART1;
MC=unknown;
MC_MODEL=unknown;
MC_ID=unknown;
OS=unknown;
OS_RELEASE=unknown;
FRU=sdl_parasolid_customer_support;
APPL=parasolid_acceptance_tests;
SITE=unknown;
USER=unknown;
FORMAT=text;
GUISE=transmit;
KEY=/lore/mersoj/real-fcl/models/FCL_model_thin2_nat.x_t;
FILE=/lore/mersoj/real-fcl/models/FCL_model_thin2_nat.x_t;
DATE=unknown;
**PART2;
SCH=SCH_3300252_32001;
USFLD_SIZE=1;
**PART3;
**END_OF_HEADER*****************************************************************
T51 : TRANSMIT FILE created by modeller version 330025223 SCH_3300252_32001_1300
6229 1 12 34 CCCCCCI4 mesh1006 0 I8 polyline1008 0 CCCCCCCDI5 owner1040 0 CCCCCC
I13 boundary_mesh1006 0 I17 boundary_polyline1008 0 CCCA16 index_map_offset0 0 1
 dA9 index_map82 0 A17 node_id_index_map82 0 A20 schema_embedding_map82 0 A5 chi
ld12 0 A14 lowest_node_id0 0 1 dA16 mesh_offset_data206 0 Z1 148 2 3 0 0 0 0 0 0
 1e3 1e-8 0 4 0 1 0 1 1 5 6 7 8 0 0 9 10 11 0 0 0 0 0 0 0 0 81 255 1 2 139 12 1
 13 0 0 0 14 0 70 11 CI9 list_type0 0 1 uI10 notransmit0 0 1 lCCCDCCDI12 finger_
index0 0 1 dI12 finger_block1012 0 CZ3 0 4 T1 0 0 5 20 1 15 15 0 13 255 5 91 0 1
 0 16 0 0 17 0 0 50 255 6 148 0 18 19 0 0 +-.0823453819678427 5e-4 -.01378664826
84449 0 -1 0 0 0 -1 0 134 255 7 147 0 20 21 0 0 +22 23 0 29 255 8 143 0 24 25 0
 -.0853421965711732 5e-4 -.0103269364472197 0 19 8 CCCCCCCA5 owner12 0 Z9 1 0 1
 17 0 26 V0 0 16 255 10 73 0 ?27 0 28 29 0 0 1 0 18 255 11 15 0 30 0 31 32 ?1 0
 17 255 30 0 33 34 35 11 36 37 0 38 +0 18 31 10 0 35 11 24 25 ?1 0 29 32 141 0 1
1 39 25 -.0739136699599264 5e-4 -.01801921397402045 0 29 39 140 0 40 41 32 -.080
830255635285 5e-4 -.0178252910111599 0 29 25 142 0 31 32 8 -.0787876004264875 5e
-4 -.0096288137809218 0 18 40 2 0 34 24 42 39 ?1 0 29 41 67 0 42 43 39 -.0739136
699599264 0 -.01801921397402045 0 18 42 54 0 44 40 45 41 ?1 0 29 43 68 0 45 46 4
1 -.0787876004264875 0 -.0096288137809218 0 18 45 56 0 47 42 48 43 ?1 0 29 46 69
 0 48 49 43 -.0853421965711732 0 -.0103269364472197 0 18 48 58 0 50 45 51 46 ?1
 0 29 49 70 0 51 0 46 -.080830255635285 0 -.0178252910111599 0 18 51 60 0 52 48
 0 49 ?1 0 17 52 0 53 54 55 51 56 57 0 58 +0 15 255 53 75 0 52 59 0 0 17 54 0 53
 60 52 40 58 61 0 62 -0 17 55 0 53 52 60 42 38 63 0 56 +0 17 56 0 64 65 66 42 52
 57 0 0 -0 16 57 46 67 ?52 68 69 70 0 0 1 0 17 58 0 71 72 62 51 54 61 0 66 +0 15
 71 81 0 72 16 0 0 17 72 0 71 73 58 48 66 74 0 0 +0 17 62 0 71 58 73 40 75 68 0
 0 -0 16 61 74 0 ?58 63 76 77 0 0 1 0 17 66 0 64 56 50 51 72 74 0 0 -0 15 64 45
 0 66 78 0 0 17 50 0 64 66 65 48 47 79 0 27 -0 16 74 52 80 ?72 79 0 81 0 0 1 0 8
1 1 80 113 82 74 0 0 0 83 84 0 16 79 50 83 ?47 69 74 85 0 0 1 0 134 81 66 0 74 8
6 85 0 +87 88 0 134 86 19 0 1 89 81 90 +91 92 0 134 85 65 0 79 81 93 0 +94 95 0
 136 255 87 3 20 3 18 6 FFF1 96 97 98 0 135 255 88 1 0 0 45 255 60 96 -.08083025
5635285 0 -.0178252910111599 -.0810810868853643 0 -.0179483784298177 -.080997032
7588058 0 -.0175402720317192 -.0811044435969721 0 -.01721190768207255 -.08109532
04189187 0 -.01686971825263525 -.0811273652704553 0 -.0164991774989326 -.0810841
343998931 0 -.0161030822205114 -.0809903955280988 0 -.0156434286753065 -.0812505
40647289 0 -.0153583251810657 -.0812377267201637 0 -.0150052436173784 -.08151498
74952168 0 -.01473905711752742 -.0818659861564336 0 -.01439604088074516 -.082287
3990868251 0 -.01384748477787852 -.0828270860397704 0 -.0132129923861617 -.08333
2932034975 0 -.0125779426351849 -.0839834164131122 0 -.01208936926223134 -.08403
4466773986 0 -.0114791736560445 -.0844792972853955 0 -.01082356620012938 -.08503
9490307379 0 -.01060325822828016 -.0853421965711732 0 -.0103269364472197 0 127 2
55 18 97 4 1 1 1 1 1 1 1 1 1 1 1 1 1 1 1 1 4 0 128 255 18 98 0 .0517549553097352
 .0867073018927552 .1225008341782902 .158657561027307 .2068584951712005 .2522208
165665895 .2940228483838025 .321831257294934 .359034258826924 .4086857184488355
 .485866622763016 .57781811333861 .67735674982822 .753659108090365 .816651915123
81 .866846949964681 1 0 134 93 64 0 69 85 70 0 +99 100 0 136 94 3 9 3 7 6 FFF1 1
01 102 103 0 135 95 1 0 0 45 27 101 -.0853421965711732 0 -.0103269364472197 -.08
49270817298153 0 -.01008152893644928 -.0840930834906115 0 -.00976042030158852 -.
0828100050172086 0 -.00968305821398783 -.0816355289190699 0 -.00963036791272314
 -.0806224946126889 0 -.00955544710649642 -.0796770490918908 0 -.009439033834322
93 -.0791030634927458 0 -.00950637223179893 -.0787876004264875 0 -.0096288137809
218 0 127 7 102 4 1 1 1 1 1 4 0 128 7 103 0 .216566013987959 .393501609982701 .5
7328201238485 .745110239440002 .849203750029796 1 0 16 69 48 104 ?44 57 79 93 0
 0 1 0 134 70 63 0 57 93 105 0 +106 107 0 136 99 3 32 3 30 6 FFF1 108 109 110 0
 135 100 1 0 0 45 96 108 -.0787876004264875 0 -.0096288137809218 -.0785491290100
555 0 -.00977221996117708 -.078797451749558 0 -.01017862468836864 -.078453752049
1654 0 -.0104333737736247 -.0782991814506617 0 -.01064834356735072 -.07825714482
73876 0 -.01090065650828852 -.0781389384513839 0 -.01112292688026008 -.077967494
0198075 0 -.01131998753084862 -.0778131495148609 0 -.01155428650040342 -.0776440
566872593 0 -.01182829980859792 -.0777012520623008 0 -.01218297676821072 -.07748
08920038045 0 -.01243172245650524 -.0774021305093137 0 -.01273599155633824 -.077
1375368925426 0 -.01288205522898018 -.0769094215906136 0 -.01305879294336924 -.0
766034242190386 0 -.01324768357262514 -.0762710023213351 0 -.01352444979293816 -
.0758968182313914 0 -.01388435835110774 -.0757394561830315 0 -.01430363937113612
 -.0755807022276441 0 -.01463297935810426 -.0753954713570862 0 -.014865567386422
26 -.0752460377590442 0 -.01511989195339255 -.0750279058974193 0 -.0153252378680
6805 -.0748262528229065 0 -.0155317743636288 -.0745633360871764 0 -.015700496994
62125 -.0743972762822053 0 -.01604359488963465 -.0740399993727578 0 -.0163328252
3817735 -.074080436440097 0 -.01687988733498 -.0737185607205482 0 -.017186892770
32515 -.0734950553036047 0 -.017642920629905 -.0735832474548981 0 -.018104910581
1029 -.0739136699599264 0 -.01801921397402045 0 127 30 109 4 1 1 1 1 1 1 1 1 1 1
 1 1 1 1 1 1 1 1 1 1 1 1 1 1 1 1 1 1 4 0 128 30 110 0 .0605922630165804 .0869603
644500622 .1119655561737024 .1355797871471772 .159098156309078 .183316365831529
 .210301937835561 .2400759599018095 .273100007775479 .3042791473280945 .33118618
25821185 .3583915473252195 .386219300467369 .4155307078458925 .461034187247772 .
510723727751817 .559519904956434 .589149969968683 .615166744893777 .644628527406
226 .673387484387599 .700573714675872 .727601825851142 .76143840481567 .80656321
5214285 .853093741429808 .898422381817502 .935390346917021 1 0 30 255 105 87 0 6
3 70 111 0 +-.0739136699599264 .0025 -.01801921397402045 0 -1 0 0 136 106 3 4 3
 2 5 FFF1 112 113 114 0 135 107 1 0 0 45 12 112 -.0739136699599264 0 -.018019213
97402045 -.0762191985183793 0 -.01795457298640025 -.0785247270768321 0 -.0178899
319987801 -.080830255635285 0 -.0178252910111599 0 127 2 113 4 4 0 128 2 114 0 1
 0 16 63 71 0 ?55 28 61 105 0 0 1 0 30 111 88 0 28 105 29 0 +-.0787876004264875
 .0025 -.0096288137809218 0 -1 0 0 16 28 72 0 ?115 10 63 111 0 0 1 0 30 29 89 0
 10 111 77 0 +-.0853421965711732 .0025 -.0103269364472197 0 -1 0 0 30 77 90 0 61
 29 116 0 +-.080830255635285 .0025 -.0178252910111599 0 -1 0 0 134 116 144 0 68
 77 117 0 +118 119 0 16 68 6 0 ?75 20 57 116 0 0 1 0 134 117 145 0 76 116 21 0 +
120 121 0 136 118 3 20 3 18 6 FFF1 122 123 124 0 135 119 1 0 0 45 60 122 -.08083
0255635285 5e-4 -.0178252910111599 -.0810810868853643 5e-4 -.0179483784298177 -.
0809970327588058 5e-4 -.0175402720317192 -.0811044435969721 5e-4 -.0172119076820
7255 -.0810953204189187 5e-4 -.01686971825263525 -.0811273652704553 5e-4 -.01649
91774989326 -.0810841343998931 5e-4 -.0161030822205114 -.0809903955280988 5e-4 -
.0156434286753065 -.081250540647289 5e-4 -.0153583251810657 -.0812377267201637 5
e-4 -.0150052436173784 -.0815149874952168 5e-4 -.01473905711752742 -.08186598615
64336 5e-4 -.01439604088074516 -.0822873990868251 5e-4 -.01384748477787852 -.082
8270860397704 5e-4 -.0132129923861617 -.083332932034975 5e-4 -.0125779426351849
 -.0839834164131122 5e-4 -.01208936926223134 -.084034466773986 5e-4 -.0114791736
560445 -.0844792972853955 5e-4 -.01082356620012938 -.085039490307379 5e-4 -.0106
0325822828016 -.0853421965711732 5e-4 -.0103269364472197 0 127 18 123 4 1 1 1 1
 1 1 1 1 1 1 1 1 1 1 1 1 4 0 128 18 124 0 .0517549553097352 .0867073018927552 .1
225008341782902 .158657561027307 .2068584951712005 .2522208165665895 .2940228483
838025 .321831257294934 .359034258826924 .4086857184488355 .485866622763016 .577
81811333861 .67735674982822 .753659108090365 .81665191512381 .866846949964681 1
 0 16 76 20 0 ?34 61 37 117 0 0 1 0 134 21 146 0 37 117 7 0 +125 126 0 136 120 3
 4 3 2 5 FFF1 127 128 129 0 135 121 1 0 0 45 12 127 -.0739136699599264 5e-4 -.01
801921397402045 -.0762191985183793 5e-4 -.01795457298640025 -.0785247270768321 5
e-4 -.0178899319987801 -.080830255635285 5e-4 -.0178252910111599 0 127 2 128 4 4
 0 128 2 129 0 1 0 16 37 16 0 ?30 76 20 21 0 0 1 0 136 125 3 32 3 30 6 FFF1 130
 131 132 0 135 126 1 0 0 45 96 130 -.0787876004264875 5e-4 -.0096288137809218 -.
0785491290100555 5e-4 -.00977221996117708 -.078797451749558 5e-4 -.0101786246883
6864 -.0784537520491654 5e-4 -.0104333737736247 -.0782991814506617 5e-4 -.010648
34356735072 -.0782571448273876 5e-4 -.01090065650828852 -.0781389384513839 5e-4
 -.01112292688026008 -.0779674940198075 5e-4 -.01131998753084862 -.0778131495148
609 5e-4 -.01155428650040342 -.0776440566872593 5e-4 -.01182829980859792 -.07770
12520623008 5e-4 -.01218297676821072 -.0774808920038045 5e-4 -.01243172245650524
 -.0774021305093137 5e-4 -.01273599155633824 -.0771375368925426 5e-4 -.012882055
22898018 -.0769094215906136 5e-4 -.01305879294336924 -.0766034242190386 5e-4 -.0
1324768357262514 -.0762710023213351 5e-4 -.01352444979293816 -.0758968182313914
 5e-4 -.01388435835110774 -.0757394561830315 5e-4 -.01430363937113612 -.07558070
22276441 5e-4 -.01463297935810426 -.0753954713570862 5e-4 -.01486556738642226 -.
0752460377590442 5e-4 -.01511989195339255 -.0750279058974193 5e-4 -.015325237868
06805 -.0748262528229065 5e-4 -.0155317743636288 -.0745633360871764 5e-4 -.01570
049699462125 -.0743972762822053 5e-4 -.01604359488963465 -.0740399993727578 5e-4
 -.01633282523817735 -.074080436440097 5e-4 -.01687988733498 -.0737185607205482
 5e-4 -.01718689277032515 -.0734950553036047 5e-4 -.017642920629905 -.0735832474
548981 5e-4 -.0181049105811029 -.0739136699599264 5e-4 -.01801921397402045 0 127
 30 131 4 1 1 1 1 1 1 1 1 1 1 1 1 1 1 1 1 1 1 1 1 1 1 1 1 1 1 1 1 4 0 128 30 132
 0 .0605922630165804 .0869603644500622 .1119655561737024 .1355797871471772 .1590
98156309078 .183316365831529 .210301937835561 .2400759599018095 .273100007775479
 .3042791473280945 .3311861825821185 .3583915473252195 .386219300467369 .4155307
078458925 .461034187247772 .510723727751817 .559519904956434 .589149969968683 .6
15166744893777 .644628527406226 .673387484387599 .700573714675872 .7276018258511
42 .76143840481567 .806563215214285 .853093741429808 .898422381817502 .935390346
917021 1 0 16 20 11 0 ?35 37 68 7 0 0 1 0 17 35 0 33 30 75 31 133 20 0 134 +0 15
 33 23 0 75 18 0 0 17 75 0 33 35 34 24 62 68 0 73 +0 17 133 0 135 27 134 24 35 2
0 0 75 -0 17 134 0 135 133 47 31 115 28 0 36 -0 15 135 79 0 47 136 0 0 17 47 0 1
35 134 27 45 50 79 0 115 +0 17 115 0 137 44 36 45 134 28 0 65 +0 17 36 0 137 115
 38 31 30 37 0 0 -0 15 137 77 0 44 138 0 0 17 38 0 137 36 44 11 55 63 0 60 -0 17
 44 0 137 38 115 42 65 69 0 55 +0 17 60 0 53 55 54 11 34 76 0 0 -0 17 34 0 33 75
 30 40 60 76 0 54 +0 17 65 0 64 50 56 45 44 69 0 0 -0 14 255 138 78 139 ?59 136
 137 5 140 -0 0 59 136 26 0 81 1 139 135 141 138 0 0 142 143 144 0 14 59 76 143
 ?18 138 53 5 145 -0 0 18 138 26 0 14 136 80 142 ?138 16 135 5 146 -0 0 138 16 2
6 0 67 255 140 84 0 138 145 146 0 +86 0 -1 0 ?0 13 26 3 0 0 0 0 0 0 9 16 0 14 16
 82 147 ?136 0 71 5 19 -0 0 136 0 26 0 81 1 147 133 141 16 0 0 0 142 148 0 67 19
 86 0 16 146 6 0 +149 0 -1 0 ?0 67 146 85 0 136 140 19 0 +89 0 -1 0 .00256670090
3607295 0 134 149 9 0 1 0 89 150 +151 152 0 134 89 14 0 1 149 86 153 +154 155 0
 141 255 150 19 150 150 149 0 136 151 3 20 3 18 6 FFF1 156 157 158 0 135 152 1 0
 0 45 60 156 -.080830255635285 .0025 -.0178252910111599 -.0810810868853643 .0025
 -.0179483784298177 -.0809970327588058 .0025 -.0175402720317192 -.08110444359697
21 .0025 -.01721190768207255 -.0810953204189187 .0025 -.01686971825263525 -.0811
273652704553 .0025 -.0164991774989326 -.0810841343998931 .0025 -.016103082220511
4 -.0809903955280988 .0025 -.0156434286753065 -.081250540647289 .0025 -.01535832
51810657 -.0812377267201637 .0025 -.0150052436173784 -.0815149874952168 .0025 -.
01473905711752742 -.0818659861564336 .0025 -.01439604088074516 -.082287399086825
1 .0025 -.01384748477787852 -.0828270860397704 .0025 -.0132129923861617 -.083332
932034975 .0025 -.0125779426351849 -.0839834164131122 .0025 -.01208936926223134
 -.084034466773986 .0025 -.0114791736560445 -.0844792972853955 .0025 -.010823566
20012938 -.085039490307379 .0025 -.01060325822828016 -.0853421965711732 .0025 -.
0103269364472197 0 127 18 157 4 1 1 1 1 1 1 1 1 1 1 1 1 1 1 1 1 4 0 128 18 158 0
 .0517549553097352 .0867073018927552 .1225008341782902 .158657561027307 .2068584
951712005 .2522208165665895 .2940228483838025 .321831257294934 .359034258826924
 .4086857184488355 .485866622763016 .57781811333861 .67735674982822 .75365910809
0365 .81665191512381 .866846949964681 1 0 141 153 146 153 153 89 0 136 154 3 9 3
 7 6 FFF1 159 160 161 0 135 155 1 0 0 45 27 159 -.0853421965711732 .0025 -.01032
69364472197 -.0849270817298153 .0025 -.01008152893644928 -.0840930834906115 .002
5 -.00976042030158852 -.0828100050172086 .0025 -.00968305821398783 -.08163552891
90699 .0025 -.00963036791272314 -.0806224946126889 .0025 -.00955544710649642 -.0
796770490918908 .0025 -.00943903383432293 -.0791030634927458 .0025 -.00950637223
179893 -.0787876004264875 .0025 -.0096288137809218 0 127 7 160 4 1 1 1 1 1 4 0 1
28 7 161 0 .216566013987959 .393501609982701 .57328201238485 .745110239440002 .8
49203750029796 1 0 80 255 1 141 0 162 8001 0 0 0 0 3 5 0 0 0 FFFFTFTFFFFFFF2 0 8
1 1 142 134 141 136 0 0 147 139 163 0 83 255 3 148 .596063172350652 .66666666666
6667 .686259250782025 0 83 3 163 .596063172350652 .666666666666667 .686259250782
025 0 79 255 15 162 SDL/TYSA_COLOUR0 50 145 83 0 59 164 140 0 +-.073913669959926
4 .0025 -.01801921397402045 .02802636964906545 0 .999607184150001 .9996071841500
01 0 -.02802636964906545 0 50 164 62 0 78 0 145 0 +-.0823453819678427 0 -.013786
6482684449 0 -1 0 0 0 -1 0 14 78 42 165 ?0 18 64 5 164 +0 0 0 18 26 0 81 1 165 1
38 141 78 166 0 167 0 168 0 14 18 24 167 ?78 59 33 5 6 -0 0 78 59 26 0 81 1 167
 137 141 18 0 0 143 165 169 0 81 1 143 136 141 59 0 0 139 167 170 0 83 3 169 .59
6063172350652 .666666666666667 .686259250782025 0 83 3 170 .596063172350652 .666
666666666667 .686259250782025 0 81 1 166 126 82 78 0 165 104 0 171 0 83 3 168 .5
96063172350652 .666666666666667 .686259250782025 0 80 1 82 172 173 9000 1 1 1 1
 1 1 1 1 0 FFFFTFTFFFFFFF3 0 81 1 104 121 82 69 0 0 67 166 174 0 84 255 32 171 9
e861322bd3eea1e93c4615c3d9232090 81 1 67 120 82 57 0 0 83 104 175 0 84 32 174 59
5f39dada35a0ca1493ad9113e4e82c0 81 1 83 115 82 79 0 0 80 67 176 0 84 32 175 49e6
a5accaf35257a8dd240b2f2e80e70 84 32 176 89ab8e8f8f11314298f42f5e4a9f6e940 79 15
 173 UGS/ObjectState0 83 3 144 .596063172350652 .666666666666667 .68625925078202
5 0 17 27 0 135 47 133 48 73 10 0 72 +0 17 73 0 71 62 72 24 27 10 0 0 -0 18 24 5
 0 133 31 40 8 ?1 0 141 90 140 90 90 86 0 136 91 3 32 3 30 6 FFF1 177 178 179 0
 135 92 1 0 0 45 96 177 -.0787876004264875 .0025 -.0096288137809218 -.0785491290
100555 .0025 -.00977221996117708 -.078797451749558 .0025 -.01017862468836864 -.0
784537520491654 .0025 -.0104333737736247 -.0782991814506617 .0025 -.010648343567
35072 -.0782571448273876 .0025 -.01090065650828852 -.0781389384513839 .0025 -.01
112292688026008 -.0779674940198075 .0025 -.01131998753084862 -.0778131495148609
 .0025 -.01155428650040342 -.0776440566872593 .0025 -.01182829980859792 -.077701
2520623008 .0025 -.01218297676821072 -.0774808920038045 .0025 -.0124317224565052
4 -.0774021305093137 .0025 -.01273599155633824 -.0771375368925426 .0025 -.012882
05522898018 -.0769094215906136 .0025 -.01305879294336924 -.0766034242190386 .002
5 -.01324768357262514 -.0762710023213351 .0025 -.01352444979293816 -.07589681823
13914 .0025 -.01388435835110774 -.0757394561830315 .0025 -.01430363937113612 -.0
755807022276441 .0025 -.01463297935810426 -.0753954713570862 .0025 -.01486556738
642226 -.0752460377590442 .0025 -.01511989195339255 -.0750279058974193 .0025 -.0
1532523786806805 -.0748262528229065 .0025 -.0155317743636288 -.0745633360871764
 .0025 -.01570049699462125 -.0743972762822053 .0025 -.01604359488963465 -.074039
9993727578 .0025 -.01633282523817735 -.074080436440097 .0025 -.01687988733498 -.
0737185607205482 .0025 -.01718689277032515 -.0734950553036047 .0025 -.0176429206
29905 -.0735832474548981 .0025 -.0181049105811029 -.0739136699599264 .0025 -.018
01921397402045 0 127 30 178 4 1 1 1 1 1 1 1 1 1 1 1 1 1 1 1 1 1 1 1 1 1 1 1 1 1
 1 1 1 4 0 128 30 179 0 .0605922630165804 .0869603644500622 .1119655561737024 .1
355797871471772 .159098156309078 .183316365831529 .210301937835561 .240075959901
8095 .273100007775479 .3042791473280945 .3311861825821185 .3583915473252195 .386
219300467369 .4155307078458925 .461034187247772 .510723727751817 .55951990495643
4 .589149969968683 .615166744893777 .644628527406226 .673387484387599 .700573714
675872 .727601825851142 .76143840481567 .806563215214285 .853093741429808 .89842
2381817502 .935390346917021 1 0 84 32 84 034b7f090964860b0fb88cdd0539ae480 19 17
 92 0 1 0 9 5 S0 0 136 22 3 9 3 7 6 FFF1 180 181 182 0 135 23 1 0 0 45 27 180 -.
0853421965711732 5e-4 -.0103269364472197 -.0849270817298153 5e-4 -.0100815289364
4928 -.0840930834906115 5e-4 -.00976042030158852 -.0828100050172086 5e-4 -.00968
305821398783 -.0816355289190699 5e-4 -.00963036791272314 -.0806224946126889 5e-4
 -.00955544710649642 -.0796770490918908 5e-4 -.00943903383432293 -.0791030634927
458 5e-4 -.00950637223179893 -.0787876004264875 5e-4 -.0096288137809218 0 127 7
 181 4 1 1 1 1 1 4 0 128 7 182 0 .216566013987959 .393501609982701 .573282012384
85 .745110239440002 .849203750029796 1 0 74 4 CI16 index_map_offset0 0 1 dCCZ20
 15 5 0 0 166 183 13 165 2 0 0 0 0 0 0 0 0 0 0 0 0 0 0 0 0 81 2 183 131 184 1 0
 13 0 0 185 186 0 81 1 13 132 187 1 183 2 0 0 188 0 80 1 187 82 189 9000 0 0 0 0
 3 5 0 0 0 FFTFFFFFFFFFFF1 0 82 255 1 188 9 0 79 7 189 body_id0 80 2 184 190 191
 8004 0 0 0 0 3 5 0 0 0 FFTFFFFFFFFFFF2 3 0 83 1 185 7830.64 0 84 8 186 Kg/Cu M
 0 79 16 191 SDL/TYSA_DENSITY0 80 1 12 187 192 9000 0 0 0 0 3 5 0 0 0 FFTFFFFFFF
FFFF1 0 82 1 14 129 0 79 24 192 UG2/BODY_COLOR_ATTRIBUTE0 1 0 
